<?xml version="1.0" standalone="no"?>
<!DOCTYPE svg PUBLIC "-//W3C//DTD SVG 20010904//EN"
 "http://www.w3.org/TR/2001/REC-SVG-20010904/DTD/svg10.dtd">
<svg version="1.0" xmlns="http://www.w3.org/2000/svg"
 width="1288.000000pt" height="1288.000000pt" viewBox="0 0 1288.000000 1288.000000"
 preserveAspectRatio="xMidYMid meet">
<metadata>
Created by potrace 1.11, written by Peter Selinger 2001-2013
</metadata>
<g transform="translate(0.000000,1288.000000) scale(0.100000,-0.100000)"
fill="#000000" stroke="none">
<path d="M5 12868 c-3 -7 -4 -2904 -3 -6438 l3 -6425 6435 0 6435 0 0 6435 0
6435 -6433 3 c-5141 2 -6434 0 -6437 -10z m10683 -2213 c74 -34 179 -138 272
-270 97 -137 207 -241 373 -354 133 -91 374 -176 612 -216 164 -28 215 -49
252 -103 40 -61 44 -114 33 -447 -6 -171 -15 -440 -20 -599 -5 -160 -12 -306
-15 -325 -3 -20 -9 -117 -14 -216 -9 -198 -20 -237 -80 -288 -46 -38 -132 -67
-203 -67 -111 0 -150 36 -285 260 -185 306 -265 413 -328 441 -59 27 -108 23
-220 -17 -55 -19 -145 -50 -201 -69 -56 -18 -141 -54 -191 -78 -49 -25 -134
-61 -189 -80 -106 -37 -251 -101 -651 -287 -450 -210 -959 -540 -1344 -872
-203 -174 -323 -313 -388 -448 -32 -67 -36 -83 -36 -157 0 -74 3 -85 30 -125
38 -53 115 -101 217 -133 145 -46 618 -132 958 -175 41 -5 180 -14 308 -20
128 -5 310 -17 405 -25 95 -8 312 -24 482 -35 171 -12 407 -30 525 -40 118
-11 276 -24 350 -30 251 -20 320 -40 508 -148 176 -102 221 -140 392 -337 239
-275 282 -344 321 -512 39 -167 10 -257 -131 -406 -182 -194 -387 -336 -705
-488 -83 -39 -199 -95 -260 -124 -164 -79 -444 -206 -585 -265 -69 -29 -190
-84 -270 -123 -184 -88 -485 -215 -661 -277 -75 -27 -165 -61 -198 -75 -80
-33 -511 -185 -621 -219 -47 -14 -143 -40 -215 -58 -128 -32 -134 -33 -355
-33 -178 0 -258 5 -380 22 -85 12 -240 29 -345 38 -145 12 -230 25 -360 56
-93 21 -192 44 -220 51 -83 18 -456 147 -492 169 -78 49 -98 126 -45 179 37
37 84 49 239 60 183 13 477 48 548 65 33 7 104 29 157 49 53 19 144 46 202 60
138 33 253 79 452 177 112 56 184 99 230 138 91 77 126 97 223 127 102 31 138
54 216 134 83 86 150 135 294 219 159 92 199 120 242 168 86 95 74 183 -32
227 -20 8 -103 25 -185 38 -150 22 -348 28 -639 19 -77 -2 -132 2 -184 13 -41
9 -139 21 -217 26 -79 5 -176 15 -216 21 -43 7 -118 9 -183 6 -60 -4 -139 -2
-175 4 -36 5 -153 14 -260 19 -108 4 -255 18 -330 30 -276 45 -368 6 -518
-218 -181 -270 -279 -407 -365 -510 -51 -60 -170 -202 -264 -315 -244 -290
-325 -378 -624 -673 -282 -279 -500 -483 -667 -622 -185 -155 -396 -312 -461
-345 -123 -61 -247 -45 -436 57 -44 24 -145 71 -223 105 -182 79 -405 200
-742 404 -275 166 -357 236 -379 322 -14 56 -4 104 49 241 65 166 63 247 -6
385 -42 85 -90 148 -178 234 -53 52 -84 94 -121 165 -27 52 -85 144 -128 205
-43 60 -104 153 -134 205 -31 52 -79 129 -108 170 -29 41 -80 130 -113 197
-34 66 -94 165 -135 220 -85 112 -96 132 -127 227 -13 40 -46 104 -78 150
-132 192 -309 580 -387 848 -20 68 -59 167 -86 221 -28 55 -64 150 -84 220
-37 129 -93 282 -130 357 -51 100 -125 168 -266 241 -131 68 -170 130 -190
305 -11 98 1 344 26 515 20 139 47 203 114 270 64 64 137 96 350 155 205 57
295 56 383 -3 66 -45 183 -209 375 -528 120 -199 131 -222 168 -347 22 -74 50
-138 92 -210 33 -56 85 -148 116 -203 30 -55 88 -138 128 -185 102 -121 135
-173 234 -369 60 -119 138 -249 249 -415 288 -432 379 -579 429 -691 57 -126
60 -131 181 -284 50 -63 130 -166 177 -228 47 -62 101 -125 120 -139 112 -82
217 -43 291 108 20 40 57 116 82 168 25 52 79 140 121 195 72 94 102 148 188
335 18 42 57 108 85 147 80 112 185 292 284 488 50 99 130 243 178 320 47 77
142 241 209 365 68 124 162 295 211 380 145 256 274 488 345 620 38 69 96 172
130 230 34 58 90 155 123 217 34 61 79 140 100 175 22 35 59 96 82 137 86 150
154 197 272 189 86 -5 127 -28 308 -168 85 -66 175 -130 200 -142 54 -26 144
-35 195 -18 34 11 396 247 475 310 20 16 94 65 165 110 72 45 168 110 215 145
223 164 552 342 1430 774 124 61 257 129 297 150 40 21 114 53 165 71 51 17
158 61 237 97 111 50 179 73 295 100 83 19 221 52 306 73 195 48 280 51 358
15z"/>
<path d="M6596 8524 c-61 -22 -136 -86 -282 -237 -148 -154 -419 -499 -527
-671 -126 -200 -242 -473 -293 -691 -26 -110 -26 -493 0 -635 35 -194 119
-395 227 -541 83 -114 246 -272 349 -341 203 -135 443 -238 554 -238 94 0 151
42 267 195 67 88 83 119 124 235 42 117 79 195 136 286 61 96 95 179 140 344
38 141 41 159 37 249 -6 125 -31 187 -120 304 -82 108 -116 172 -151 284 -30
94 -72 337 -87 498 -6 61 -17 159 -26 218 -12 76 -15 138 -10 205 3 53 9 142
12 197 11 176 -29 281 -127 330 -57 29 -158 33 -223 9z"/>
</g>
</svg>
